<mxGraphModel dx="0" dy="0" grid="1" gridSize="10" guides="1" tooltips="1" connect="1" arrows="1" fold="1" page="0" pageScale="1" background="none" math="0" shadow="0">
  <root>
    <mxCell id="0" />
    <mxCell id="1" parent="0" />
    <mxCell id="node0" parent="1" vertex="1" value="&lt;p style=&quot;margin:0px;margin-top:4px;text-align:center;&quot;&gt;&lt;b&gt;Countries&lt;/b&gt;&lt;/p&gt;&lt;hr size=&quot;1&quot;/&gt;&lt;p style=&quot;margin:0 0 0 4px;line-height:1.6;&quot;&gt; Name: varchar(100)&lt;/p&gt;&lt;hr size=&quot;1&quot;/&gt;&lt;p style=&quot;margin:0 0 0 4px;line-height:1.6;&quot;&gt; Id: integer&lt;/p&gt;" style="verticalAlign=top;align=left;overflow=fill;fontSize=14;fontFamily=Helvetica;html=1;rounded=0;shadow=0;comic=0;labelBackgroundColor=none;strokeWidth=1;">
      <mxGeometry x="219" y="-95" width="150" height="95" as="geometry" />
    </mxCell>
    <mxCell id="node4" parent="1" vertex="1" value="&lt;p style=&quot;margin:0px;margin-top:4px;text-align:center;&quot;&gt;&lt;b&gt;CountryMovie&lt;/b&gt;&lt;/p&gt;&lt;hr size=&quot;1&quot;/&gt;&lt;p style=&quot;margin:0 0 0 4px;line-height:1.6;&quot;&gt; CountriesId: integer&lt;br/&gt; MoviesId: integer&lt;/p&gt;" style="verticalAlign=top;align=left;overflow=fill;fontSize=14;fontFamily=Helvetica;html=1;rounded=0;shadow=0;comic=0;labelBackgroundColor=none;strokeWidth=1;">
      <mxGeometry x="534" y="-95" width="155" height="94" as="geometry" />
    </mxCell>
    <mxCell id="node5" parent="1" vertex="1" value="&lt;p style=&quot;margin:0px;margin-top:4px;text-align:center;&quot;&gt;&lt;b&gt;GenreMovie&lt;/b&gt;&lt;/p&gt;&lt;hr size=&quot;1&quot;/&gt;&lt;p style=&quot;margin:0 0 0 4px;line-height:1.6;&quot;&gt; GenresId: integer&lt;br/&gt; MoviesId: integer&lt;/p&gt;" style="verticalAlign=top;align=left;overflow=fill;fontSize=14;fontFamily=Helvetica;html=1;rounded=0;shadow=0;comic=0;labelBackgroundColor=none;strokeWidth=1;">
      <mxGeometry x="542" y="384" width="138" height="94" as="geometry" />
    </mxCell>
    <mxCell id="node6" parent="1" vertex="1" value="&lt;p style=&quot;margin:0px;margin-top:4px;text-align:center;&quot;&gt;&lt;b&gt;Genres&lt;/b&gt;&lt;/p&gt;&lt;hr size=&quot;1&quot;/&gt;&lt;p style=&quot;margin:0 0 0 4px;line-height:1.6;&quot;&gt; Name: varchar(45)&lt;/p&gt;&lt;hr size=&quot;1&quot;/&gt;&lt;p style=&quot;margin:0 0 0 4px;line-height:1.6;&quot;&gt; Id: integer&lt;/p&gt;" style="verticalAlign=top;align=left;overflow=fill;fontSize=14;fontFamily=Helvetica;html=1;rounded=0;shadow=0;comic=0;labelBackgroundColor=none;strokeWidth=1;">
      <mxGeometry x="222" y="384" width="144" height="95" as="geometry" />
    </mxCell>
    <mxCell id="node8" parent="1" vertex="1" value="&lt;p style=&quot;margin:0px;margin-top:4px;text-align:center;&quot;&gt;&lt;b&gt;Movies&lt;/b&gt;&lt;/p&gt;&lt;hr size=&quot;1&quot;/&gt;&lt;p style=&quot;margin:0 0 0 4px;line-height:1.6;&quot;&gt; Name: varchar(250)&lt;br/&gt; Descriptions: text&lt;br/&gt; Year: integer&lt;br/&gt; AgeLimit: integer&lt;br/&gt; PosterLink: text&lt;br/&gt; ImageLink: text&lt;/p&gt;&lt;hr size=&quot;1&quot;/&gt;&lt;p style=&quot;margin:0 0 0 4px;line-height:1.6;&quot;&gt; Id: integer&lt;/p&gt;" style="verticalAlign=top;align=left;overflow=fill;fontSize=14;fontFamily=Helvetica;html=1;rounded=0;shadow=0;comic=0;labelBackgroundColor=none;strokeWidth=1;">
      <mxGeometry x="535" y="96" width="152" height="208" as="geometry" />
    </mxCell>
    <mxCell id="node9" parent="1" vertex="1" value="&lt;p style=&quot;margin:0px;margin-top:4px;text-align:center;&quot;&gt;&lt;b&gt;Places&lt;/b&gt;&lt;/p&gt;&lt;hr size=&quot;1&quot;/&gt;&lt;p style=&quot;margin:0 0 0 4px;line-height:1.6;&quot;&gt; HallNumber: integer&lt;br/&gt; RowNumber: integer&lt;br/&gt; PlaceNumber: integer&lt;br/&gt; IsIncreasedPrice: boolean&lt;/p&gt;&lt;hr size=&quot;1&quot;/&gt;&lt;p style=&quot;margin:0 0 0 4px;line-height:1.6;&quot;&gt; Id: integer&lt;/p&gt;" style="verticalAlign=top;align=left;overflow=fill;fontSize=14;fontFamily=Helvetica;html=1;rounded=0;shadow=0;comic=0;labelBackgroundColor=none;strokeWidth=1;">
      <mxGeometry x="-134" y="298" width="188" height="160" as="geometry" />
    </mxCell>
    <mxCell id="node7" parent="1" vertex="1" value="&lt;p style=&quot;margin:0px;margin-top:4px;text-align:center;&quot;&gt;&lt;b&gt;Reservations&lt;/b&gt;&lt;/p&gt;&lt;hr size=&quot;1&quot;/&gt;&lt;p style=&quot;margin:0 0 0 4px;line-height:1.6;&quot;&gt; UserLogin: text&lt;br/&gt; SessionId: integer&lt;br/&gt; PlaceId: integer&lt;/p&gt;" style="verticalAlign=top;align=left;overflow=fill;fontSize=14;fontFamily=Helvetica;html=1;rounded=0;shadow=0;comic=0;labelBackgroundColor=none;strokeWidth=1;">
      <mxGeometry x="-113" y="133" width="145" height="120" as="geometry" />
    </mxCell>
    <mxCell id="node3" parent="1" vertex="1" value="&lt;p style=&quot;margin:0px;margin-top:4px;text-align:center;&quot;&gt;&lt;b&gt;Sessions&lt;/b&gt;&lt;/p&gt;&lt;hr size=&quot;1&quot;/&gt;&lt;p style=&quot;margin:0 0 0 4px;line-height:1.6;&quot;&gt; MovieId: integer&lt;br/&gt; Start: timestamp with time zone&lt;br/&gt; HallNumber: integer&lt;br/&gt; Price: integer&lt;br/&gt; IncreasedPrice: integer&lt;/p&gt;&lt;hr size=&quot;1&quot;/&gt;&lt;p style=&quot;margin:0 0 0 4px;line-height:1.6;&quot;&gt; Id: integer&lt;/p&gt;" style="verticalAlign=top;align=left;overflow=fill;fontSize=14;fontFamily=Helvetica;html=1;rounded=0;shadow=0;comic=0;labelBackgroundColor=none;strokeWidth=1;">
      <mxGeometry x="180" y="96" width="228" height="184" as="geometry" />
    </mxCell>
    <mxCell id="node1" parent="1" vertex="1" value="&lt;p style=&quot;margin:0px;margin-top:4px;text-align:center;&quot;&gt;&lt;b&gt;Users&lt;/b&gt;&lt;/p&gt;&lt;hr size=&quot;1&quot;/&gt;&lt;p style=&quot;margin:0 0 0 4px;line-height:1.6;&quot;&gt; Password: text&lt;/p&gt;&lt;hr size=&quot;1&quot;/&gt;&lt;p style=&quot;margin:0 0 0 4px;line-height:1.6;&quot;&gt; Login: text&lt;/p&gt;" style="verticalAlign=top;align=left;overflow=fill;fontSize=14;fontFamily=Helvetica;html=1;rounded=0;shadow=0;comic=0;labelBackgroundColor=none;strokeWidth=1;">
      <mxGeometry x="-383" y="144" width="122" height="95" as="geometry" />
    </mxCell>
    <mxCell id="node2" parent="1" vertex="1" value="&lt;p style=&quot;margin:0px;margin-top:4px;text-align:center;&quot;&gt;&lt;b&gt;__EFMigrationsHistory&lt;/b&gt;&lt;/p&gt;&lt;hr size=&quot;1&quot;/&gt;&lt;p style=&quot;margin:0 0 0 4px;line-height:1.6;&quot;&gt; ProductVersion: varchar(32)&lt;/p&gt;&lt;hr size=&quot;1&quot;/&gt;&lt;p style=&quot;margin:0 0 0 4px;line-height:1.6;&quot;&gt; MigrationId: varchar(150)&lt;/p&gt;" style="verticalAlign=top;align=left;overflow=fill;fontSize=14;fontFamily=Helvetica;html=1;rounded=0;shadow=0;comic=0;labelBackgroundColor=none;strokeWidth=1;">
      <mxGeometry x="-396" y="641" width="225" height="95" as="geometry" />
    </mxCell>
    <mxCell id="edge0" edge="1" value="" parent="1" source="node4" target="node0" style="html=1;rounded=1;edgeStyle=orthogonalEdgeStyle;dashed=0;startArrow=none;endArrow=block;endSize=12;strokeColor=#595959;exitX=0.000;exitY=0.500;exitDx=0;exitDy=0;entryX=1.000;entryY=0.500;entryDx=0;entryDy=0;">
      <mxGeometry width="50" height="50" relative="1" as="geometry">
        <Array as="points" />
      </mxGeometry>
    </mxCell>
    <mxCell id="label2" parent="edge0" vertex="1" connectable="0" value="CountriesId:Id" style="edgeLabel;resizable=0;html=1;align=left;verticalAlign=top;strokeColor=default;">
      <mxGeometry x="425" y="-21" as="geometry" />
    </mxCell>
    <mxCell id="edge4" edge="1" value="" parent="1" source="node4" target="node8" style="html=1;rounded=1;edgeStyle=orthogonalEdgeStyle;dashed=0;startArrow=none;endArrow=block;endSize=12;strokeColor=#595959;exitX=0.500;exitY=1.000;exitDx=0;exitDy=0;entryX=0.500;entryY=0.000;entryDx=0;entryDy=0;">
      <mxGeometry width="50" height="50" relative="1" as="geometry">
        <Array as="points" />
      </mxGeometry>
    </mxCell>
    <mxCell id="label26" parent="edge4" vertex="1" connectable="0" value="MoviesId:Id" style="edgeLabel;resizable=0;html=1;align=left;verticalAlign=top;strokeColor=default;">
      <mxGeometry x="536" y="34" as="geometry" />
    </mxCell>
    <mxCell id="edge2" edge="1" value="" parent="1" source="node5" target="node6" style="html=1;rounded=1;edgeStyle=orthogonalEdgeStyle;dashed=0;startArrow=none;endArrow=block;endSize=12;strokeColor=#595959;exitX=0.000;exitY=0.500;exitDx=0;exitDy=0;entryX=1.000;entryY=0.500;entryDx=0;entryDy=0;">
      <mxGeometry width="50" height="50" relative="1" as="geometry">
        <Array as="points" />
      </mxGeometry>
    </mxCell>
    <mxCell id="label14" parent="edge2" vertex="1" connectable="0" value="GenresId:Id" style="edgeLabel;resizable=0;html=1;align=left;verticalAlign=top;strokeColor=default;">
      <mxGeometry x="429" y="452" as="geometry" />
    </mxCell>
    <mxCell id="edge6" edge="1" value="" parent="1" source="node5" target="node8" style="html=1;rounded=1;edgeStyle=orthogonalEdgeStyle;dashed=0;startArrow=none;endArrow=block;endSize=12;strokeColor=#595959;exitX=0.500;exitY=0.000;exitDx=0;exitDy=0;entryX=0.500;entryY=1.000;entryDx=0;entryDy=0;">
      <mxGeometry width="50" height="50" relative="1" as="geometry">
        <Array as="points" />
      </mxGeometry>
    </mxCell>
    <mxCell id="label38" parent="edge6" vertex="1" connectable="0" value="MoviesId:Id" style="edgeLabel;resizable=0;html=1;align=left;verticalAlign=top;strokeColor=default;">
      <mxGeometry x="627" y="335" as="geometry" />
    </mxCell>
    <mxCell id="edge1" edge="1" value="" parent="1" source="node7" target="node9" style="html=1;rounded=1;edgeStyle=orthogonalEdgeStyle;dashed=0;startArrow=none;endArrow=block;endSize=12;strokeColor=#595959;exitX=0.500;exitY=1.000;exitDx=0;exitDy=0;entryX=0.500;entryY=0.000;entryDx=0;entryDy=0;">
      <mxGeometry width="50" height="50" relative="1" as="geometry">
        <Array as="points" />
      </mxGeometry>
    </mxCell>
    <mxCell id="label8" parent="edge1" vertex="1" connectable="0" value="PlaceId:Id" style="edgeLabel;resizable=0;html=1;align=left;verticalAlign=top;strokeColor=default;">
      <mxGeometry x="-59" y="261" as="geometry" />
    </mxCell>
    <mxCell id="edge3" edge="1" value="" parent="1" source="node7" target="node3" style="html=1;rounded=1;edgeStyle=orthogonalEdgeStyle;dashed=0;startArrow=none;endArrow=block;endSize=12;strokeColor=#595959;exitX=1.000;exitY=0.500;exitDx=0;exitDy=0;entryX=0.000;entryY=0.500;entryDx=0;entryDy=0;">
      <mxGeometry width="50" height="50" relative="1" as="geometry">
        <Array as="points" />
      </mxGeometry>
    </mxCell>
    <mxCell id="label20" parent="edge3" vertex="1" connectable="0" value="SessionId:Id" style="edgeLabel;resizable=0;html=1;align=left;verticalAlign=top;strokeColor=default;">
      <mxGeometry x="67" y="166" as="geometry" />
    </mxCell>
    <mxCell id="edge5" edge="1" value="" parent="1" source="node7" target="node1" style="html=1;rounded=1;edgeStyle=orthogonalEdgeStyle;dashed=0;startArrow=none;endArrow=block;endSize=12;strokeColor=#595959;exitX=0.000;exitY=0.500;exitDx=0;exitDy=0;entryX=1.000;entryY=0.500;entryDx=0;entryDy=0;">
      <mxGeometry width="50" height="50" relative="1" as="geometry">
        <Array as="points" />
      </mxGeometry>
    </mxCell>
    <mxCell id="label32" parent="edge5" vertex="1" connectable="0" value="UserLogin:Login" style="edgeLabel;resizable=0;html=1;align=left;verticalAlign=top;strokeColor=default;">
      <mxGeometry x="-232" y="166" as="geometry" />
    </mxCell>
    <mxCell id="edge7" edge="1" value="" parent="1" source="node3" target="node8" style="html=1;rounded=1;edgeStyle=orthogonalEdgeStyle;dashed=0;startArrow=none;endArrow=block;endSize=12;strokeColor=#595959;exitX=1.000;exitY=0.500;exitDx=0;exitDy=0;entryX=0.000;entryY=0.442;entryDx=0;entryDy=0;">
      <mxGeometry width="50" height="50" relative="1" as="geometry">
        <Array as="points" />
      </mxGeometry>
    </mxCell>
    <mxCell id="label44" parent="edge7" vertex="1" connectable="0" value="MovieId:Id" style="edgeLabel;resizable=0;html=1;align=left;verticalAlign=top;strokeColor=default;">
      <mxGeometry x="439" y="173" as="geometry" />
    </mxCell>
  </root>
</mxGraphModel>